<?xml version="1.0" encoding="UTF-8" standalone="no"?>
<!-- Created with Inkscape (http://www.inkscape.org/) -->

<svg
   width="402mm"
   height="402mm"
   viewBox="0 0 402 402"
   version="1.1"
   id="svg1"
   inkscape:version="1.3.2 (091e20e, 2023-11-25, custom)"
   sodipodi:docname="ground.svg"
   inkscape:export-filename="ground.png"
   inkscape:export-xdpi="96"
   inkscape:export-ydpi="96"
   xmlns:inkscape="http://www.inkscape.org/namespaces/inkscape"
   xmlns:sodipodi="http://sodipodi.sourceforge.net/DTD/sodipodi-0.dtd"
   xmlns="http://www.w3.org/2000/svg"
   xmlns:svg="http://www.w3.org/2000/svg">
  <sodipodi:namedview
     id="namedview1"
     pagecolor="#ffffff"
     bordercolor="#111111"
     borderopacity="1"
     inkscape:showpageshadow="0"
     inkscape:pageopacity="0"
     inkscape:pagecheckerboard="1"
     inkscape:deskcolor="#d1d1d1"
     inkscape:document-units="mm"
     inkscape:zoom="0.22315867"
     inkscape:cx="517.56896"
     inkscape:cy="795.39818"
     inkscape:window-width="1366"
     inkscape:window-height="697"
     inkscape:window-x="-8"
     inkscape:window-y="-8"
     inkscape:window-maximized="1"
     inkscape:current-layer="layer1" />
  <defs
     id="defs1">
    <linearGradient
       id="swatch6"
       inkscape:swatch="solid">
      <stop
         style="stop-color:#000000;stop-opacity:1;"
         offset="0"
         id="stop7" />
    </linearGradient>
  </defs>
  <g
     inkscape:label="图层 1"
     inkscape:groupmode="layer"
     id="layer1"
     transform="translate(118.3806,34.600277)">
    <rect
       style="fill:none;stroke:#000000;stroke-width:2;stroke-dasharray:none;stroke-opacity:1"
       id="rect1"
       width="400"
       height="400"
       x="-117.3806"
       y="-33.600277" />
    <path
       style="fill:none;stroke:#000000;stroke-width:2;stroke-dasharray:none;stroke-opacity:1"
       d="m -117.7159,-8.7318965 c 399.55687,0 400.1497,0 400.1497,0"
       id="path1" />
    <path
       style="fill:none;stroke:#000000;stroke-width:2;stroke-dasharray:none;stroke-opacity:1"
       d="m -117.7159,11.845277 c 399.55687,0 400.1497,0 400.1497,0"
       id="path1-5" />
    <path
       style="fill:none;stroke:#000000;stroke-width:2;stroke-dasharray:none;stroke-opacity:1"
       d="m -117.7159,52.999622 c 399.55687,0 400.1497,0 400.1497,0"
       id="path1-0" />
    <path
       style="fill:none;stroke:#000000;stroke-width:2;stroke-dasharray:none;stroke-opacity:1"
       d="m -117.7159,94.153966 c 399.55687,0 400.1497,0 400.1497,0"
       id="path1-9" />
    <path
       style="fill:none;stroke:#000000;stroke-width:2;stroke-dasharray:none;stroke-opacity:1"
       d="m -117.7159,135.30831 c 399.55687,0 400.1497,0 400.1497,0"
       id="path1-2" />
    <path
       style="fill:none;stroke:#000000;stroke-width:2;stroke-dasharray:none;stroke-opacity:1"
       d="m -117.7159,155.88548 c 399.55687,0 400.1497,0 400.1497,0"
       id="path1-09" />
    <path
       style="fill:none;stroke:#000000;stroke-width:2;stroke-dasharray:none;stroke-opacity:1"
       d="m -117.7159,176.46265 c 399.55687,0 400.1497,0 400.1497,0"
       id="path1-7" />
    <path
       style="fill:none;stroke:#000000;stroke-width:2;stroke-dasharray:none;stroke-opacity:1"
       d="m -117.7159,197.03982 c 399.55687,0 400.1497,0 400.1497,0"
       id="path1-3" />
    <path
       style="fill:none;stroke:#000000;stroke-width:2;stroke-dasharray:none;stroke-opacity:1"
       d="m -117.7159,217.617 c 399.55687,0 400.1497,0 400.1497,0"
       id="path1-53" />
    <path
       style="fill:none;stroke:#000000;stroke-width:2;stroke-dasharray:none;stroke-opacity:1"
       d="m -117.7159,258.77134 c 399.55687,0 400.1497,0 400.1497,0"
       id="path1-02" />
    <path
       style="fill:none;stroke:#000000;stroke-width:2;stroke-dasharray:none;stroke-opacity:1"
       d="m -117.7159,279.34851 c 399.55687,0 400.1497,0 400.1497,0"
       id="path1-76" />
    <path
       style="fill:none;stroke:#000000;stroke-width:2;stroke-dasharray:none;stroke-opacity:1"
       d="m -117.71591,299.92569 c 399.55688,0 400.14971,0 400.14971,0"
       id="path1-29" />
    <path
       style="fill:none;stroke:#000000;stroke-width:2;stroke-dasharray:none;stroke-opacity:1"
       d="m -117.7159,320.50286 c 399.55687,0 400.1497,0 400.1497,0"
       id="path1-35" />
    <path
       style="fill:none;stroke:#000000;stroke-width:2;stroke-dasharray:none;stroke-opacity:1"
       d="m -117.7159,341.08003 c 399.55687,0 400.1497,0 400.1497,0"
       id="path1-52" />
    <path
       style="fill:none;stroke:#000000;stroke-width:2;stroke-dasharray:none;stroke-opacity:1"
       d="m -117.7159,238.19417 c 399.55687,0 400.1497,0 400.1497,0"
       id="path1-91" />
    <path
       style="fill:none;stroke:#000000;stroke-width:2;stroke-dasharray:none;stroke-opacity:1"
       d="m -117.7159,32.422449 c 399.55687,0 400.1497,0 400.1497,0"
       id="path1-1" />
    <path
       style="fill:none;stroke:#000000;stroke-width:2;stroke-dasharray:none;stroke-opacity:1"
       d="m -117.71591,73.576797 c 399.55688,0 400.14971,0 400.14971,0"
       id="path1-06" />
    <path
       style="fill:none;stroke:#000000;stroke-width:2;stroke-dasharray:none;stroke-opacity:1"
       d="m -117.7159,114.73113 c 399.55687,0 400.1497,0 400.1497,0"
       id="path1-24" />
    <path
       style="fill:none;stroke:#000000;stroke-width:2;stroke-dasharray:none;stroke-opacity:1"
       d="m 257.37959,-33.974104 c 0,399.556874 0,400.149704 0,400.149704"
       id="path1-914" />
    <path
       style="fill:none;stroke:#000000;stroke-width:2;stroke-dasharray:none;stroke-opacity:1"
       d="m 236.80242,-33.974104 c 0,399.556874 0,400.149704 0,400.149704"
       id="path1-5-2" />
    <path
       style="fill:none;stroke:#000000;stroke-width:2;stroke-dasharray:none;stroke-opacity:1"
       d="m 195.64807,-33.974104 c 0,399.556874 0,400.149704 0,400.149704"
       id="path1-0-7" />
    <path
       style="fill:none;stroke:#000000;stroke-width:2;stroke-dasharray:none;stroke-opacity:1"
       d="m 154.49373,-33.974104 c 0,399.556874 0,400.149704 0,400.149704"
       id="path1-9-7" />
    <path
       style="fill:none;stroke:#000000;stroke-width:2;stroke-dasharray:none;stroke-opacity:1"
       d="m 113.33938,-33.974104 c 0,399.556874 0,400.149704 0,400.149704"
       id="path1-2-4" />
    <path
       style="fill:none;stroke:#000000;stroke-width:2;stroke-dasharray:none;stroke-opacity:1"
       d="m 92.762216,-33.974104 c 0,399.556874 0,400.149704 0,400.149704"
       id="path1-09-3" />
    <path
       style="fill:none;stroke:#000000;stroke-width:2;stroke-dasharray:none;stroke-opacity:1"
       d="m 72.185046,-33.974104 c 0,399.556874 0,400.149704 0,400.149704"
       id="path1-7-9" />
    <path
       style="fill:none;stroke:#000000;stroke-width:2;stroke-dasharray:none;stroke-opacity:1"
       d="m 51.607876,-33.974104 c 0,399.556874 0,400.149704 0,400.149704"
       id="path1-3-9" />
    <path
       style="fill:none;stroke:#000000;stroke-width:2;stroke-dasharray:none;stroke-opacity:1"
       d="m 31.030696,-33.974104 c 0,399.556874 0,400.149704 0,400.149704"
       id="path1-53-3" />
    <path
       style="fill:none;stroke:#000000;stroke-width:2;stroke-dasharray:none;stroke-opacity:1"
       d="m -10.123644,-33.974104 c 0,399.556874 0,400.149704 0,400.149704"
       id="path1-02-0" />
    <path
       style="fill:none;stroke:#000000;stroke-width:2;stroke-dasharray:none;stroke-opacity:1"
       d="m -30.700814,-33.974104 c 0,399.556874 0,400.149704 0,400.149704"
       id="path1-76-6" />
    <path
       style="fill:none;stroke:#000000;stroke-width:2;stroke-dasharray:none;stroke-opacity:1"
       d="m -51.277994,-33.974114 c 0,399.556884 0,400.149714 0,400.149714"
       id="path1-29-4" />
    <path
       style="fill:none;stroke:#000000;stroke-width:2;stroke-dasharray:none;stroke-opacity:1"
       d="m -71.855164,-33.974104 c 0,399.556874 0,400.149704 0,400.149704"
       id="path1-35-8" />
    <path
       style="fill:none;stroke:#000000;stroke-width:2;stroke-dasharray:none;stroke-opacity:1"
       d="m -92.432334,-33.974104 c 0,399.556874 0,400.149704 0,400.149704"
       id="path1-52-6" />
    <path
       style="fill:none;stroke:#000000;stroke-width:2;stroke-dasharray:none;stroke-opacity:1"
       d="m 10.453527,-33.974104 c 0,399.556874 0,400.149704 0,400.149704"
       id="path1-91-7" />
    <path
       style="fill:none;stroke:#000000;stroke-width:2;stroke-dasharray:none;stroke-opacity:1"
       d="m 216.22524,-33.974104 c 0,399.556874 0,400.149704 0,400.149704"
       id="path1-1-8" />
    <path
       style="fill:none;stroke:#000000;stroke-width:2;stroke-dasharray:none;stroke-opacity:1"
       d="m 175.0709,-33.974114 c 0,399.556884 0,400.149714 0,400.149714"
       id="path1-06-3" />
    <path
       style="fill:none;stroke:#000000;stroke-width:2;stroke-dasharray:none;stroke-opacity:1"
       d="m 133.91656,-33.974104 c 0,399.556874 0,400.149704 0,400.149704"
       id="path1-24-0" />
  </g>
</svg>
